<?xml version="1.0" encoding="UTF-8" standalone="no"?>
<!-- Created with Inkscape (http://www.inkscape.org/) -->

<svg
   width="200.70082mm"
   height="227.26376mm"
   viewBox="0 0 200.70082 227.26376"
   version="1.1"
   id="svg1"
   xml:space="preserve"
   xmlns="http://www.w3.org/2000/svg"
   xmlns:svg="http://www.w3.org/2000/svg"><defs
     id="defs1" /><g
     id="layer1"
     transform="translate(-5.1357115,-31.875748)"><path
       style="fill:#000000;stroke-width:1.44482"
       d="m 44.596998,258.76205 c -0.558423,-0.14733 -1.115783,-0.72477 -1.238578,-1.28319 -0.257727,-1.17204 1.096593,-6.14885 3.548911,-13.04143 1.617523,-4.54628 1.830813,-4.83994 3.883903,-5.34733 2.744788,-0.67833 5.12309,-0.0974 5.953518,1.45431 0.589813,1.10207 4.222147,12.83621 4.98501,16.10389 0.24694,1.05777 -0.02202,1.54499 -1.132086,2.05077 -2.112896,0.96271 -4.391124,-0.22502 -4.852026,-2.52953 -0.342662,-1.71331 -0.518109,-1.81057 -3.266233,-1.81057 -2.82798,0 -2.9142,0.0538 -3.288557,2.04923 -0.338729,1.80558 -1.784376,2.98897 -3.277894,2.68326 -0.165359,-0.0338 -0.757544,-0.18209 -1.315968,-0.32941 z m 9.502675,-9.6645 c -0.17194,-0.57876 -0.490097,-1.7964 -0.707013,-2.70588 -0.543246,-2.27769 -1.151257,-2.07086 -1.97276,0.67107 -0.936676,3.12634 -0.951272,3.08709 1.147953,3.08709 1.474831,0 1.781793,-0.21086 1.53182,-1.05228 z m 19.867219,8.97224 c -1.428,-1.57792 -1.226871,-3.53127 0.478668,-4.64878 1.874948,-1.22851 3.822455,-0.64665 4.589659,1.37124 1.245126,3.27492 -2.739039,5.85137 -5.068327,3.27754 z m 10.642781,0.6835 c -1.835465,-0.35902 -3.350316,-2.25098 -3.117644,-3.89374 0.212118,-1.49766 0.187165,-1.49452 5.976406,-0.74959 2.15472,0.27726 2.849067,0.15376 3.121114,-0.55519 0.432401,-1.12682 -0.418804,-1.83198 -3.352069,-2.77694 -3.635034,-1.17104 -5.847458,-3.37764 -5.847458,-5.83208 0,-1.14986 0.292368,-2.63694 0.649706,-3.30464 1.9034,-3.55653 12.389836,-3.94877 13.483062,-0.50432 0.743637,2.34299 -0.15595,2.87328 -4.308739,2.53993 -3.516287,-0.28225 -3.910375,-0.20436 -3.721528,0.73566 0.123763,0.61601 1.421492,1.50998 3.134188,2.15901 5.140562,1.94806 6.961512,4.55656 5.747907,8.23385 -1.098117,3.32733 -6.194692,5.03762 -11.764945,3.94805 z m 18.665627,-0.44336 c -2.95591,-1.28674 -4.447408,-3.88774 -4.447408,-7.7558 0,-2.68785 0.294122,-3.66811 1.547588,-5.15774 4.10163,-4.87452 12.36554,-3.22364 13.87005,2.7708 0.58705,2.33903 -1.11998,3.59638 -5.52275,4.06789 -2.12805,0.22789 -4.01489,0.65012 -4.193,0.93829 -0.67227,1.08779 2.26207,1.90712 5.41796,1.51281 3.29206,-0.41131 4.33563,0.27653 3.54508,2.33665 -0.76853,2.00272 -6.82184,2.76527 -10.21752,1.2871 z m 4.78081,-9.88426 c 1.00409,-0.39515 1.01926,-0.51284 0.15813,-1.22751 -1.14607,-0.95115 -3.6988,-0.43823 -4.19004,0.84191 -0.25967,0.67666 0.0673,0.89641 1.28661,0.86489 0.8991,-0.0233 2.13447,-0.23893 2.7453,-0.47929 z m 10.14344,10.11665 c -1.32606,-0.53287 -1.36751,-0.77295 -1.20261,-6.96452 0.16209,-6.0863 0.24908,-6.471 1.70944,-7.55971 2.23036,-1.66279 7.64241,-2.09905 10.12347,-0.81604 2.71811,1.4056 3.67118,4.06286 3.67118,10.23565 0,4.89846 -0.0611,5.13364 -1.35293,5.20167 -3.9761,0.20937 -4.66013,-0.78885 -4.66013,-6.80055 v -4.69552 h -2.10457 -2.10456 v 5.71241 c 0,3.14182 -0.24847,5.71241 -0.55213,5.71241 -0.30367,0 -0.9125,0.11833 -1.35294,0.26305 -0.44045,0.14468 -1.41884,0.0147 -2.17422,-0.28885 z m 19.11193,-0.11718 c -1.08779,-0.57492 -1.50326,-1.28818 -1.50326,-2.58067 0,-1.56945 0.18239,-1.75656 1.50326,-1.54212 5.61304,0.91124 8.1533,-0.51262 3.08413,-1.72869 -3.80665,-0.9132 -5.02485,-2.22926 -4.77753,-5.16133 0.27752,-3.2902 2.51967,-4.77884 7.19773,-4.77884 2.90646,0 3.78236,0.2327 4.48307,1.19099 1.58787,2.17154 0.8222,3.01816 -2.72955,3.01816 -4.00791,0 -4.62709,1.11446 -1.11105,1.99981 5.15027,1.29686 7.00211,5.4911 3.76651,8.53078 -1.83358,1.72255 -7.50563,2.32442 -9.91331,1.05191 z m 17.37648,-0.62066 c -5.3597,-3.58051 -5.23361,-10.95533 0.24439,-14.29549 3.65496,-2.22856 9.06329,-1.0021 11.2264,2.54583 1.69937,2.78729 1.6575,7.58326 -0.0855,9.79918 -2.65812,3.37926 -7.90179,4.27759 -11.38525,1.95048 z m 6.09638,-3.44552 c 0.88832,0 1.37591,-4.20435 0.66783,-5.75843 -0.72323,-1.58732 -2.93599,-1.97701 -4.17733,-0.73567 -1.87943,1.87942 -0.0884,7.67336 2.11102,6.82934 0.48049,-0.18439 1.10981,-0.33524 1.39848,-0.33524 z m -95.9329,2.88981 c -0.188705,-0.7626 -0.265302,-5.17478 -0.170217,-9.80483 l 0.172884,-8.41828 1.878821,-0.1828 c 3.52581,-0.34304 3.886038,0.6906 3.698998,10.61402 l -0.166065,8.81058 -2.535662,0.18392 c -2.221698,0.16116 -2.578143,0.0116 -2.878759,-1.20261 z M 52.226679,224.76791 C 47.985861,224.24083 44.42787,223.02234 39.993166,220.5784 32.168753,216.26638 26.8477,208.68917 23.780059,197.4908 c -1.12568,-4.10927 -1.16003,-4.15332 -4.643983,-5.95606 -2.937165,-1.51981 -3.884329,-2.43929 -5.804387,-5.63471 -1.26196,-2.10021 -2.294472,-3.90869 -2.294472,-4.01887 0,-0.11024 -0.803054,-1.50359 -1.7845639,-3.09648 C 6.92851,175.01284 5.8572346,170.68332 5.3320963,162.9399 4.9547414,157.3756 5.0566315,156.19406 6.211822,152.73824 c 0.8489526,-2.53967 2.1089127,-4.75083 3.5976917,-6.31371 1.2601493,-1.32288 2.6232323,-3.48758 3.0290703,-4.81044 0.405839,-1.32288 1.11757,-3.01057 1.581626,-3.75043 0.960043,-1.53065 4.991508,-3.76591 6.792078,-3.76591 1.271761,0 1.84849,-1.46213 3.026159,-7.67195 1.402958,-7.39777 4.962827,-13.68958 11.083849,-19.58992 6.335365,-6.10695 13.420093,-9.29273 23.594674,-10.609812 3.134692,-0.405778 4.191139,-0.890124 7.087814,-3.249499 1.872228,-1.524949 4.408645,-3.279421 5.636483,-3.89883 2.497333,-1.259839 9.3446,-3.083272 11.59109,-3.086711 0.805666,-0.0012 2.411906,-0.584097 3.569419,-1.295237 2.501894,-1.537099 8.647615,-3.501909 10.97384,-3.508367 l 1.653581,-0.0043 v -6.885143 c 0,-5.21615 -0.200874,-7.001704 -0.828705,-7.365999 -0.455783,-0.264473 -1.538133,-1.533323 -2.405218,-2.819667 -4.397507,-6.523817 0.281756,-15.808325 8.302386,-16.473459 6.51237,-0.540054 11.17351,3.482604 11.64879,10.053126 0.27548,3.808681 -0.55445,6.056376 -3.14324,8.512753 -1.45746,1.382909 -1.52759,1.757553 -1.5375,8.213694 l -0.0101,6.764695 h 2.29609 c 3.11607,0 8.43406,1.628066 10.63199,3.254917 1.22259,0.90492 3.45102,1.572657 6.91502,2.07203 7.49046,1.079829 10.32568,2.273769 14.77201,6.220711 2.83982,2.520848 4.40244,3.48499 5.64823,3.48499 4.12096,0 11.41074,1.911409 16.09419,4.219958 3.58361,1.76641 6.16766,3.63265 9.38177,6.77563 5.52096,5.39878 8.25356,10.66728 10.18944,19.6455 l 1.35586,6.28819 2.88216,1.03115 c 4.52075,1.6174 5.41592,2.47168 6.89366,6.57881 0.86788,2.41211 2.11978,4.5025 3.39728,5.67263 3.84163,3.5188 4.86413,11.30599 3.05791,23.28868 -0.70251,4.66061 -1.38642,6.80525 -3.35559,10.52286 -1.36027,2.56808 -2.6892,4.93982 -2.95317,5.27054 -0.26395,0.33072 -0.66846,1.48296 -0.89887,2.56055 -0.46148,2.15807 -1.55319,2.95823 -6.01298,4.40716 l -2.98588,0.97008 -1.00305,5.09615 c -2.43343,12.36344 -9.51597,20.25031 -22.13334,24.64697 -2.96491,1.03316 -6.0267,1.23765 -25.90169,1.72998 -25.40559,0.62935 -82.003205,0.53077 -87.499686,-0.1524 z m 61.032551,-29.78614 c 5.44592,-1.81715 9.48562,-5.75567 8.13877,-7.9349 -0.67034,-1.08461 -2.0261,-0.71367 -5.29181,1.44791 -3.90463,2.58448 -8.33897,3.58865 -13.43645,3.04276 -3.076817,-0.32951 -4.557713,-0.88526 -7.378927,-2.7692 -3.860131,-2.5777 -4.941723,-2.83114 -6.104262,-1.43036 -0.64731,0.77996 -0.444858,1.26425 1.279312,3.06022 5.36064,5.58389 14.367407,7.39507 22.793367,4.58357 z M 58.993876,169.4245 c 0.330404,-0.41339 0.795815,-2.37515 1.034246,-4.35947 0.576964,-4.80171 1.502967,-6.84989 4.146138,-9.17063 2.572032,-2.25826 4.369524,-2.82319 7.603028,-2.38948 4.690564,0.62913 8.095485,4.71229 8.760833,10.5059 0.54514,4.74691 0.802331,5.46724 2.099002,5.87878 3.510096,1.11406 4.598566,-4.23149 2.267287,-11.13477 -2.394078,-7.08927 -8.491502,-11.30609 -15.437569,-10.67623 -8.1837,0.74207 -13.801048,6.5846 -14.401663,14.979 -0.382671,5.3483 0.09225,7.11854 1.909779,7.11854 0.78,0 1.688514,-0.33824 2.018919,-0.75164 z m 96.833774,-4.24862 c 0.14855,-3.95953 -0.0579,-5.2112 -1.31096,-7.94828 -2.73946,-5.98378 -6.47701,-8.73681 -12.44041,-9.16349 -3.67767,-0.26313 -4.50433,-0.10721 -7.51884,1.41797 -1.86279,0.94248 -4.15169,2.64145 -5.08646,3.77547 -2.63046,3.19123 -4.28463,8.25389 -4.0685,12.45187 0.17774,3.45202 0.23965,3.57114 1.9578,3.76666 2.31691,0.26366 3.33684,-1.1536 3.33684,-4.63679 0,-5.16521 3.83541,-10.3727 8.2969,-11.26499 6.73541,-1.34709 12.1475,4.30323 12.1475,12.68222 0,2.89639 0.90488,4.04024 3.00231,3.79513 1.44799,-0.16922 1.51444,-0.36164 1.68382,-4.87577 z M 58.402474,133.6511 c 4.171805,-2.75373 7.13548,-3.38092 12.236087,-2.58954 2.229309,0.34589 4.766332,0.89998 5.637828,1.23134 3.025254,1.15019 5.420689,-1.688 3.870059,-4.58538 -1.155844,-2.15972 -4.587113,-2.83413 -12.358452,-2.42903 -7.077621,0.36893 -10.507573,1.31783 -13.945073,3.85795 -2.673077,1.97524 -3.445689,4.07329 -2.20007,5.97436 1.155027,1.76279 2.228987,1.53087 6.759621,-1.4597 z m 103.261906,1.64929 c 0.61972,-1.95257 -0.22126,-3.49661 -2.89632,-5.31759 -4.55901,-3.10345 -11.60196,-4.93683 -18.71081,-4.87068 -4.70452,0.0438 -7.58915,1.06343 -8.71859,3.08182 -0.82385,1.47229 -0.80443,1.72065 0.22322,2.85621 1.00655,1.11222 1.83082,1.24592 7.79704,1.26468 8.18572,0.0257 15.40064,1.23069 17.56553,2.9336 2.04809,1.61103 4.23748,1.63503 4.73993,0.052 z M 91.010918,45.880503 c -1.209976,-0.4449 -3.006529,-2.042234 -3.006529,-2.673136 0,-0.918369 2.296934,-0.531445 4.475423,0.753895 1.176418,0.694104 2.138942,1.505867 2.138942,1.803918 0,0.585123 -2.143779,0.653648 -3.607836,0.115326 z m 24.653552,-1.031465 c 0,-1.032719 4.80064,-5.741979 5.86273,-5.751138 1.40218,-0.01214 0.75996,1.442786 -1.77879,4.029574 -2.57737,2.626151 -4.08394,3.261238 -4.08394,1.721564 z M 96.142769,39.843051 c -2.220256,-3.026237 -2.703555,-4.960775 -1.239336,-4.960775 0.9378,0 5.127087,5.766456 5.127087,7.05732 0,1.64146 -1.895072,0.619512 -3.887751,-2.096545 z m 14.369401,0.701673 c 0.59122,-2.355583 3.24785,-6.263754 4.25788,-6.263754 1.29593,0 1.12039,0.820428 -0.9669,4.518904 -1.9752,3.499862 -4.00103,4.573943 -3.29098,1.74485 z m -6.29198,-0.888368 c -0.95993,-1.793643 -0.21764,-7.780609 0.96469,-7.780609 0.62782,0 0.88563,0.889183 0.95891,3.307183 0.0552,1.818951 0.12281,3.758162 0.15032,4.309359 0.0766,1.532378 -1.28403,1.640017 -2.07392,0.164067 z"
       id="path1" /></g></svg>
